<?xml version="1.0" encoding="UTF-8" standalone="no"?>
<!-- Created with Inkscape (http://www.inkscape.org/) -->

<svg
   width="180"
   height="180"
   viewBox="0 0 180 180"
   version="1.1"
   id="svg5"
   inkscape:version="1.2 (dc2aedaf03, 2022-05-15)"
   sodipodi:docname="pi.svg"
   xmlns:inkscape="http://www.inkscape.org/namespaces/inkscape"
   xmlns:sodipodi="http://sodipodi.sourceforge.net/DTD/sodipodi-0.dtd"
   xmlns="http://www.w3.org/2000/svg"
   xmlns:svg="http://www.w3.org/2000/svg">
  <sodipodi:namedview
     id="namedview7"
     pagecolor="#ffffff"
     bordercolor="#000000"
     borderopacity="0.25"
     inkscape:showpageshadow="2"
     inkscape:pageopacity="0.0"
     inkscape:pagecheckerboard="0"
     inkscape:deskcolor="#d1d1d1"
     inkscape:document-units="px"
     showgrid="false"
     inkscape:zoom="1.9540592"
     inkscape:cx="73.436875"
     inkscape:cy="70.366344"
     inkscape:window-width="1920"
     inkscape:window-height="1014"
     inkscape:window-x="0"
     inkscape:window-y="0"
     inkscape:window-maximized="1"
     inkscape:current-layer="layer1" />
  <defs
     id="defs2">
    <rect
       x="23.753397"
       y="32.090193"
       width="59.7917"
       height="35.185022"
       id="rect63" />
    <rect
       x="23.753397"
       y="32.090193"
       width="59.7917"
       height="35.185022"
       id="rect1167" />
    <rect
       x="23.753397"
       y="32.090193"
       width="59.7917"
       height="35.185022"
       id="rect1173" />
  </defs>
  <g
     inkscape:label="Layer 1"
     inkscape:groupmode="layer"
     id="layer1">
    <g
       aria-label="π"
       transform="matrix(5.0526326,0,0,5.0526326,-92.362121,-181.25615)"
       id="text1165"
       style="font-size:29.3333px;white-space:pre;shape-inside:url(#rect1167);display:inline">
      <path
         d="m 42.057885,60.983144 h -4.546661 q -0.557333,0 -0.821333,-0.234667 -0.234666,-0.263999 -0.234666,-0.821332 V 49.807157 h -4.253328 v 10.119988 q 0,0.557333 -0.264,0.821332 -0.234667,0.234667 -0.791999,0.234667 h -4.546662 q -0.557332,0 -0.821332,-0.234667 -0.234666,-0.263999 -0.234666,-0.821332 V 45.319162 q 0,-0.557333 0.234666,-0.791999 0.264,-0.264 0.821332,-0.264 h 15.458649 q 0.557333,0 0.791999,0.264 0.264,0.234666 0.264,0.791999 v 14.607983 q 0,0.557333 -0.264,0.821332 -0.234666,0.234667 -0.791999,0.234667 z"
         style="font-family:Bungee;-inkscape-font-specification:Bungee"
         id="path1261" />
    </g>
    <g
       aria-label="π"
       transform="matrix(5.0526326,0,0,5.0526326,-84.784096,-172.13095)"
       id="text1171"
       style="font-size:29.3333px;white-space:pre;shape-inside:url(#rect1173);display:inline;fill:#ffffff">
      <path
         d="m 42.057885,60.983144 h -4.546661 q -0.557333,0 -0.821333,-0.234667 -0.234666,-0.263999 -0.234666,-0.821332 V 49.807157 h -4.253328 v 10.119988 q 0,0.557333 -0.264,0.821332 -0.234667,0.234667 -0.791999,0.234667 h -4.546662 q -0.557332,0 -0.821332,-0.234667 -0.234666,-0.263999 -0.234666,-0.821332 V 45.319162 q 0,-0.557333 0.234666,-0.791999 0.264,-0.264 0.821332,-0.264 h 15.458649 q 0.557333,0 0.791999,0.264 0.264,0.234666 0.264,0.791999 v 14.607983 q 0,0.557333 -0.264,0.821332 -0.234666,0.234667 -0.791999,0.234667 z"
         style="font-family:Bungee;-inkscape-font-specification:Bungee"
         id="path1264" />
    </g>
    <g
       aria-label="π"
       transform="matrix(5.0526326,0,0,5.0526326,-77.129583,-165.04912)"
       id="text61"
       style="font-size:29.3333px;white-space:pre;shape-inside:url(#rect63);display:inline;fill:#ff2f92">
      <path
         d="m 42.057885,60.983144 h -4.546661 q -0.557333,0 -0.821333,-0.234667 -0.234666,-0.263999 -0.234666,-0.821332 V 49.807157 h -4.253328 v 10.119988 q 0,0.557333 -0.264,0.821332 -0.234667,0.234667 -0.791999,0.234667 h -4.546662 q -0.557332,0 -0.821332,-0.234667 -0.234666,-0.263999 -0.234666,-0.821332 V 45.319162 q 0,-0.557333 0.234666,-0.791999 0.264,-0.264 0.821332,-0.264 h 15.458649 q 0.557333,0 0.791999,0.264 0.264,0.234666 0.264,0.791999 v 14.607983 q 0,0.557333 -0.264,0.821332 -0.234666,0.234667 -0.791999,0.234667 z"
         style="font-family:Bungee;-inkscape-font-specification:Bungee"
         id="path1267" />
    </g>
  </g>
</svg>
